<?xml version="1.0" standalone="no"?>
<!DOCTYPE svg PUBLIC "-//W3C//DTD SVG 20010904//EN"
 "http://www.w3.org/TR/2001/REC-SVG-20010904/DTD/svg10.dtd">
<svg version="1.0" xmlns="http://www.w3.org/2000/svg"
 width="225.000000pt" height="225.000000pt" viewBox="0 0 225.000000 225.000000"
 preserveAspectRatio="xMidYMid meet">
<metadata>
Created by potrace 1.14, written by Peter Selinger 2001-2017
</metadata>
<g transform="translate(0.000000,225.000000) scale(0.100000,-0.100000)"
fill="#000000" stroke="none">
<path d="M850 2041 c-89 -28 -165 -96 -203 -180 -17 -36 -22 -72 -25 -173 l-4
-128 -175 0 c-266 0 -258 9 -287 -317 l-6 -63 404 0 404 0 4 66 c4 60 7 70 36
95 31 28 37 29 128 29 96 0 96 0 130 -34 31 -31 34 -39 34 -95 l0 -61 406 0
406 0 -6 38 c-3 20 -8 82 -12 137 -7 114 -24 159 -68 186 -27 17 -52 19 -207
19 l-176 0 -6 129 c-6 147 -20 191 -83 261 -21 23 -61 54 -88 68 l-51 27 -265
2 c-146 1 -276 -2 -290 -6z m568 -113 c35 -18 56 -38 80 -78 31 -53 32 -57 32
-172 l0 -118 -406 0 -406 0 4 128 c3 123 4 131 32 170 63 91 111 102 419 97
186 -2 200 -4 245 -27z"/>
<path d="M1037 1294 c-4 -4 -7 -74 -7 -155 0 -125 2 -148 16 -153 23 -9 147
-7 162 2 9 7 12 45 10 158 l-3 149 -85 3 c-47 1 -89 0 -93 -4z"/>
<path d="M146 1088 c-8 -35 -56 -696 -56 -760 0 -49 4 -60 30 -87 23 -22 43
-31 83 -36 28 -3 464 -5 967 -3 855 3 917 4 941 21 34 23 49 58 49 115 0 57
-49 718 -56 750 l-4 22 -405 0 -405 0 0 -57 c0 -105 -44 -143 -165 -143 -121
0 -165 38 -165 143 l0 57 -405 0 -405 0 -4 -22z"/>
</g>
</svg>
